<svg width="370" height="320" viewBox="0 0 370 320" fill="none" xmlns="http://www.w3.org/2000/svg">
<g clip-path="url(#clip0)">
<path opacity="0.1" d="M330.805 175.016C317.35 199.368 319.485 232.302 325.016 258.215C326.868 266.891 329.011 276.048 327.25 285.806C325.098 297.738 317.602 307.181 310.058 312.619C296.305 322.531 280.719 322.455 269.479 312.421C259.765 303.749 253.469 288.496 243.544 280.298C226.935 266.58 203.883 275.314 183.793 288.586C169.58 297.975 153.924 309.843 140.951 303.403C131.823 298.872 126.236 285.827 123.713 271.588C122.494 264.713 121.794 257.196 118.89 251.982C117.163 248.882 114.765 246.824 112.277 245.145C89.558 229.813 58.4702 243.266 36.5868 225.859C21.8075 214.103 13.5882 189.544 11.0772 163.202C8.56626 136.859 11.1434 108.606 14.2983 80.7813C16.5404 61.0075 19.5202 39.8258 28.844 23.6442C38.7072 6.52617 54.0593 -1.25516 67.319 0.164142C80.5787 1.58345 92.0055 10.985 101.822 22.4999C114.09 36.891 125.096 55.329 141.12 59.8187C152.033 62.8763 164.027 59.0266 175.676 56.7851C195.149 53.0379 214.301 53.8013 233.317 54.8743C251.521 55.9015 269.834 57.2407 286.734 64.2915C298.693 69.2811 307.801 79.8658 318.94 86.6815C326.201 91.1242 334.438 91.5957 341.184 97.5575C349.495 104.902 356.609 118.565 353.071 135.992C349.707 152.56 337.947 162.091 330.805 175.016Z" fill="#FFCC7B"/>
<path d="M59.2607 165.096C59.2607 165.096 88.7787 171.06 110.059 139.752C110.059 139.752 92.211 120.744 79.8547 124.843C67.4983 128.943 59.2607 153.169 59.2607 153.169V165.096Z" fill="#FFCC7B"/>
<path opacity="0.1" d="M59.2607 165.096C59.2607 165.096 88.7787 171.06 110.059 139.752C110.059 139.752 92.211 120.744 79.8547 124.843C67.4983 128.943 59.2607 153.169 59.2607 153.169V165.096Z" fill="black"/>
<path d="M72.6467 139.752L102.851 207.212L110.059 203.113L78.8249 139.752H72.6467Z" fill="#504F60"/>
<path d="M110.059 139.752C104.589 139.811 99.1456 140.598 93.8517 142.096C86.5474 144.189 79.6024 147.549 73.2852 152.048C64.1518 158.507 59.2607 165.096 59.2607 165.096C37.4827 123.532 42.3531 48.5497 42.7616 42.8211V42.8174C42.7684 42.7279 42.7719 42.6534 42.7753 42.6012C42.7822 42.5155 42.7856 42.4745 42.7856 42.4745C57.2013 42.4745 110.059 139.752 110.059 139.752Z" fill="#FFCC7B"/>
<path d="M369.361 220.552L335.906 230.32C335.906 230.32 284.421 231.439 266.573 248.211C248.725 264.983 196.897 263.119 195.524 263.119C194.151 263.119 174.93 244.856 139.92 263.864C104.911 282.873 63.0363 270.946 63.0363 270.946C63.0363 270.946 19.4458 290.7 7.08946 283.991C-5.2669 277.282 2.28421 268.337 2.28421 268.337C2.28421 268.337 27.6834 247.092 8.11916 223.612C-11.4451 200.131 11.5515 200.131 11.5515 200.131H77.7232C83.1236 200.185 88.4532 198.794 93.2407 196.08C98.4098 193.079 104.492 194.037 108.563 195.301C112.082 196.387 115.781 196.603 119.388 195.934C152.603 189.818 173.797 191.57 182.605 192.904C186.27 193.455 189.981 193.554 193.667 193.199C204.891 192.136 228.182 189.881 240.831 188.249C244.311 187.802 246.985 187.403 248.382 187.086C252.294 186.199 270.767 190.109 289.453 195.338C310.102 201.111 331.015 208.498 332.817 212.803C335.302 218.737 357.203 219.009 369.117 218.707C369.328 218.702 369.533 218.781 369.694 218.93C369.855 219.078 369.961 219.285 369.991 219.512C370.021 219.739 369.973 219.97 369.857 220.162C369.741 220.353 369.564 220.492 369.361 220.552Z" fill="#EED1D7"/>
<path d="M239.114 247.838L230.877 249.701C230.877 249.701 198.27 230.693 193.808 237.029" fill="#CCB2BB"/>
<path d="M230.877 193.422C230.877 193.422 178.019 181.868 156.052 195.658L230.877 193.422Z" fill="#CCB2BB"/>
<path opacity="0.1" d="M191.107 214.185C191.107 214.185 177.891 208.319 178.47 211.671C179.049 215.023 185.801 218.374 185.801 218.374C185.801 218.374 172.49 217.118 173.068 222.145C173.068 222.145 188.309 221.726 187.73 225.497C187.152 229.268 187.73 234.296 190.238 233.248C192.746 232.201 194.29 220.05 201.042 225.916C207.794 231.782 206.83 219.841 198.534 218.793C198.534 218.793 202.971 215.232 202.585 213.556C202.2 211.88 191.107 214.185 191.107 214.185Z" fill="black"/>
<path d="M190.914 213.556C190.914 213.556 177.699 207.69 178.277 211.042C178.856 214.394 185.608 217.746 185.608 217.746C185.608 217.746 172.297 216.489 172.876 221.517C172.876 221.517 188.116 221.098 187.538 224.869C186.959 228.639 187.538 233.667 190.046 232.62C192.554 231.572 194.097 219.422 200.849 225.288C207.601 231.153 206.637 219.212 198.341 218.165C198.341 218.165 202.778 214.604 202.393 212.928C202.007 211.252 190.914 213.556 190.914 213.556Z" fill="#F89898"/>
<path d="M293.688 225.103C293.688 225.103 274.81 218.766 273.094 219.885L293.688 225.103Z" fill="#CCB2BB"/>
<path d="M147.128 230.693C147.128 230.693 172.527 222.866 182.138 228.83L147.128 230.693Z" fill="#CCB2BB"/>
<path d="M189.174 198.826C189.174 198.826 196.039 176.837 209.768 181.309C223.497 185.782 233.794 197.336 233.794 197.336L189.174 201.063V198.826Z" fill="#EED1D7"/>
<path d="M39.8682 223.425C39.8682 223.425 50.5084 228.271 68.3564 226.407C86.2045 224.543 100.277 236.097 100.277 236.097" fill="#CCB2BB"/>
<g opacity="0.05">
<path opacity="0.05" d="M83.0828 134.073C83.1674 133.919 83.2066 133.741 83.1951 133.562C83.1448 133.729 83.1072 133.9 83.0828 134.073Z" fill="url(#paint0_linear)"/>
</g>
<g opacity="0.05">
<path opacity="0.05" d="M83.0828 133.816C83.1674 133.663 83.2066 133.484 83.1951 133.306C83.1448 133.472 83.1072 133.643 83.0828 133.816Z" fill="url(#paint1_linear)"/>
</g>
<g opacity="0.05">
<path opacity="0.05" d="M103.37 198.208C102.626 198.554 100.854 200.367 98.5548 202.968C97.8248 197.748 97.3518 193.04 97.6578 191.082C97.684 190.789 97.7772 190.508 97.9291 190.265C99.3086 190.162 102.111 193.908 104.349 197.294C103.729 197.833 103.37 198.208 103.37 198.208Z" fill="url(#paint2_linear)"/>
</g>
<path d="M140.048 221.057C140.048 221.057 152.077 246.932 155.085 247.937C158.092 248.942 160.174 247.434 160.174 247.434C160.174 247.434 185.159 242.41 180.532 248.188C175.906 253.966 135.421 250.449 135.421 250.449L125.242 225.579L140.048 221.057Z" fill="#EF91A3"/>
<path opacity="0.1" d="M105.578 221.56C105.578 221.56 125.011 207.492 130.331 207.492C130.331 207.492 138.197 204.729 142.824 223.821C142.824 223.821 126.861 226.835 127.093 235.125L124.085 228.091L111.13 243.666L95.399 232.111L105.578 221.56Z" fill="black"/>
<path d="M105.578 221.057C105.578 221.057 125.011 206.99 130.331 206.99C130.331 206.99 138.197 204.226 142.824 223.318C142.824 223.318 126.861 226.333 127.093 234.623L124.085 227.589L111.13 243.164L95.399 231.608L105.578 221.057Z" fill="#5D526E"/>
<path d="M126.861 214.024C125.705 220.053 119.69 221.057 119.69 221.057L111.13 215.28C111.13 215.28 109.923 206.625 108.902 201.35C108.512 199.323 108.148 197.793 107.892 197.444C106.966 196.188 121.541 196.439 121.541 196.439C122.563 198.316 123.495 200.251 124.331 202.234C125.918 206.005 127.479 210.803 126.861 214.024Z" fill="#EF91A3"/>
<path d="M89.8469 168.555L84.9888 193.676L73.1904 190.41C73.1904 190.41 62.3174 181.115 65.5562 175.337C66.6157 173.448 67.1547 170.7 67.4023 167.859C67.9089 162.003 67.1756 155.743 67.1756 155.743C67.1756 155.743 80.1306 151.975 77.5859 162.275C76.5402 166.505 78.421 168.319 81.0005 168.989C84.7042 169.951 89.8469 168.555 89.8469 168.555Z" fill="#EF91A3"/>
<path opacity="0.1" d="M81.0004 168.989C79.1598 170.028 77.1154 170.568 75.0411 170.564C72.184 170.564 69.4334 168.623 67.2912 166.922C67.5878 163.2 67.5491 159.456 67.1755 155.743C67.1755 155.743 80.1306 151.975 77.5859 162.275C76.5402 166.505 78.421 168.319 81.0004 168.989Z" fill="black"/>
<path d="M75.041 170.062C82.1959 170.062 87.9961 163.764 87.9961 155.994C87.9961 148.225 82.1959 141.927 75.041 141.927C67.8861 141.927 62.0859 148.225 62.0859 155.994C62.0859 163.764 67.8861 170.062 75.041 170.062Z" fill="#EF91A3"/>
<path opacity="0.1" d="M74.0724 185.34L77.5858 190.661L79.5849 182.792C80.357 179.643 80.7642 176.403 80.797 173.145C80.8137 171.763 81.2278 170.422 81.9812 169.308C85.5863 167.173 88.2628 166.046 92.8061 166.552C97.3072 167.086 101.583 168.968 105.157 171.987C118.66 183.249 125.011 201.966 125.011 201.966C125.011 201.966 106.503 197.946 107.429 202.468C107.429 202.468 99.3318 188.4 97.4811 190.661C95.6303 192.922 101.414 222.816 101.414 222.816L63.474 225.83L53.5264 197.193L53.989 175.84C53.989 175.84 63.821 170.941 65.9031 170.941C66.6318 170.941 66.5205 170.666 66.8284 171.946C68.0151 176.88 71.336 181.196 74.0724 185.34Z" fill="black"/>
<path opacity="0.1" d="M124.331 202.234C121.113 201.604 111.998 199.994 108.902 201.35C108.512 199.323 108.148 197.793 107.892 197.444C106.966 196.188 121.541 196.439 121.541 196.439C122.563 198.316 123.495 200.251 124.331 202.234Z" fill="black"/>
<path d="M74.5352 185.089L78.0486 190.41L80.0477 182.541C80.8198 179.392 81.227 176.151 81.2598 172.894C81.2765 171.512 81.6906 170.171 82.444 169.057C86.0491 166.922 88.7256 165.795 93.2689 166.301C97.77 166.835 102.046 168.717 105.619 171.736C119.123 182.998 125.473 201.714 125.473 201.714C125.473 201.714 106.966 197.695 107.891 202.217C107.891 202.217 99.7946 188.149 97.9438 190.41C96.0931 192.671 101.877 222.565 101.877 222.565L63.9368 225.579L53.9891 196.941L54.4518 175.589C54.4518 175.589 64.2838 170.69 66.3658 170.69C67.0946 170.69 66.9833 170.415 67.2912 171.695C68.4779 176.629 71.7988 180.945 74.5352 185.089Z" fill="#DFECFB"/>
<path opacity="0.1" d="M66.0468 165.933C64.7467 166.184 63.2327 165.708 62.5989 164.45C62.3483 163.825 62.1707 163.169 62.0701 162.497C61.3983 159.635 59.2009 157.498 58.1188 154.789C56.2959 150.225 57.8964 144.989 59.5007 140.329C60.2891 138.039 61.1363 135.654 62.8188 134.03C65.4046 131.534 69.26 131.475 72.6899 131.966C74.0795 132.165 75.4766 132.432 76.8738 132.312C78.2711 132.192 79.7021 131.629 80.5864 130.448C81.3311 130.973 81.0554 132.187 80.9037 133.137C80.754 134.074 80.8775 135.172 81.5739 135.749C82.2703 136.326 83.5698 135.851 83.5115 134.902C82.8852 136.914 84.2678 139.138 86.0488 140.016C86.6399 140.301 87.2642 140.497 87.9042 140.598C88.9779 140.765 89.9586 141.352 90.6631 142.247C91.3675 143.143 91.7473 144.287 91.7315 145.464L91.7311 145.486C91.7496 145.747 91.6954 146.009 91.5754 146.237C91.4269 146.418 91.2375 146.555 91.0257 146.633C89.2287 147.526 87.7598 149.049 86.8544 150.956C86.3751 151.974 86.0141 153.153 85.1301 153.773C84.0435 154.535 82.6216 154.156 81.3317 154.264C80.264 154.374 79.2508 154.828 78.4219 155.567C77.5929 156.306 76.9859 157.297 76.6784 158.413C76.3787 159.577 76.4187 160.844 75.7483 161.878C75.6059 162.112 75.4194 162.31 75.2011 162.459C74.9829 162.609 74.7379 162.706 74.4824 162.745C73.4792 162.863 73.0177 161.885 72.2979 161.381C70.6057 160.196 69.5264 161.761 68.992 163.237C68.4047 164.858 67.9948 165.555 66.0468 165.933Z" fill="black"/>
<path d="M66.0468 165.681C64.7467 165.933 63.2327 165.457 62.5989 164.199C62.3483 163.574 62.1707 162.918 62.0701 162.246C61.3983 159.384 59.2009 157.247 58.1188 154.538C56.2959 149.974 57.8964 144.737 59.5007 140.078C60.2891 137.788 61.1363 135.403 62.8188 133.779C65.4046 131.283 69.26 131.223 72.6899 131.715C74.0795 131.913 75.4766 132.181 76.8738 132.061C78.2711 131.94 79.7021 131.378 80.5864 130.197C81.3311 130.722 81.0554 131.936 80.9037 132.886C80.754 133.823 80.8775 134.921 81.5739 135.498C82.2703 136.075 83.5698 135.599 83.5115 134.65C82.8852 136.662 84.2678 138.887 86.0488 139.765C86.6399 140.05 87.2642 140.245 87.9042 140.346C88.9779 140.514 89.9586 141.1 90.6631 141.996C91.3675 142.892 91.7473 144.035 91.7315 145.213L91.7311 145.235C91.7496 145.496 91.6954 145.758 91.5754 145.986C91.4269 146.167 91.2375 146.304 91.0257 146.382C89.2287 147.275 87.7598 148.797 86.8544 150.705C86.3751 151.722 86.0141 152.901 85.1301 153.522C84.0435 154.284 82.6216 153.905 81.3317 154.013C80.264 154.123 79.2508 154.577 78.4219 155.316C77.5929 156.055 76.9859 157.046 76.6784 158.162C76.3787 159.325 76.4187 160.593 75.7483 161.627C75.6059 161.861 75.4194 162.059 75.2011 162.208C74.9829 162.357 74.7379 162.455 74.4824 162.493C73.4792 162.611 73.0177 161.634 72.2979 161.13C70.6057 159.945 69.5264 161.51 68.992 162.986C68.4047 164.607 67.9948 165.304 66.0468 165.681Z" fill="#572142"/>
<g opacity="0.05">
<path opacity="0.05" d="M102.843 171.485C115.333 181.901 121.702 198.692 122.589 201.156C124.313 201.462 125.473 201.714 125.473 201.714C125.473 201.714 119.123 182.998 105.619 171.736C102.046 168.717 97.7699 166.835 93.2687 166.301C92.6384 166.231 92.047 166.195 91.4811 166.186C95.6227 166.871 99.534 168.695 102.843 171.485Z" fill="black"/>
<path opacity="0.05" d="M64.5151 171.444C65.7017 176.378 69.0226 180.693 71.759 184.838L75.2724 190.159L75.9976 187.304L74.5351 185.089C71.7987 180.944 68.4778 176.629 67.2911 171.695C66.9832 170.415 67.0945 170.69 66.3658 170.69C65.7103 170.756 65.0653 170.914 64.4468 171.158C64.4674 171.244 64.4894 171.337 64.5151 171.444Z" fill="black"/>
<path opacity="0.05" d="M106.66 200.156C107.412 201.383 107.891 202.217 107.891 202.217C107.488 200.244 110.783 199.897 114.626 200.133C111.611 199.785 108.48 199.635 106.66 200.156Z" fill="black"/>
<path opacity="0.05" d="M97.6719 191.22C96.5782 190.102 95.6557 189.563 95.1676 190.159C93.3169 192.42 99.1004 222.313 99.1004 222.313L63.7772 225.12L63.9367 225.579L101.877 222.565C101.877 222.565 96.8412 196.536 97.6719 191.22Z" fill="black"/>
</g>
<path d="M62.6159 251.024C60.402 253.014 54.1164 257.782 46.355 255.975C38.6189 254.174 45.108 250.147 48.0738 248.577C48.2309 248.495 48.3687 248.374 48.477 248.226C48.5853 248.077 48.6613 247.904 48.6993 247.719C48.7373 247.534 48.7364 247.342 48.6966 247.157C48.6568 246.973 48.5792 246.801 48.4694 246.653C46.7686 244.397 44.8148 242.381 42.6535 240.652C40.7681 239.145 38.4986 236.431 36.523 233.826V233.824C35.4843 232.46 34.5312 231.128 33.7539 230.011C33.6078 229.8 33.5259 229.546 33.5197 229.283C33.5134 229.02 33.5832 228.761 33.7191 228.543C33.8551 228.325 34.0504 228.159 34.2777 228.067C34.5051 227.976 34.753 227.964 34.9869 228.034L50.1536 232.505C50.3911 232.575 50.6018 232.726 50.7551 232.935L55.7405 239.7L62.7848 249.261C62.9757 249.52 63.0651 249.85 63.0335 250.18C63.0019 250.51 62.8518 250.813 62.6159 251.024Z" fill="#EF91A3"/>
<path opacity="0.1" d="M55.7403 239.7C43.0837 229.676 38.3065 231.468 36.5229 233.824C35.4842 232.46 34.531 231.128 33.7537 230.011C33.6077 229.8 33.5258 229.546 33.5195 229.283C33.5133 229.02 33.5831 228.761 33.719 228.543C33.8549 228.325 34.0502 228.159 34.2776 228.067C34.5049 227.976 34.7529 227.964 34.9868 228.034L50.1534 232.505C50.391 232.575 50.6017 232.725 50.7549 232.935L55.7403 239.7Z" fill="black"/>
<path d="M45.1981 208.748C45.1981 208.748 24.8401 201.463 28.0789 216.787C31.3177 232.111 35.4818 235.879 35.4818 235.879C35.4818 235.879 36.6385 223.821 56.3025 239.647L49.3622 227.589L57.4592 216.536L45.1981 208.748Z" fill="#5D526E"/>
<path opacity="0.1" d="M40.34 194.932C40.34 194.932 38.4893 205.482 45.1982 218.294C50.5165 228.45 44.2045 233.081 41.3594 234.565C40.9865 234.759 40.5673 234.824 40.1593 234.749C39.7513 234.675 39.3745 234.466 39.0804 234.15C37.2062 232.136 33.613 227.03 35.7132 219.048L37.1013 215.028L29.467 208.999C29.467 208.999 27.4016 200.681 28.3186 198.811C29.2357 196.941 36.6386 191.917 36.6386 191.917L40.34 194.932Z" fill="black"/>
<path d="M40.34 194.429C40.34 194.429 38.4893 204.98 45.1982 217.792C50.5165 227.948 44.2045 232.579 41.3594 234.062C40.9865 234.257 40.5673 234.321 40.1593 234.247C39.7513 234.173 39.3745 233.963 39.0804 233.647C37.2062 231.634 33.613 226.527 35.7132 218.545L37.1013 214.526L29.467 208.497C29.467 208.497 27.4016 200.178 28.3186 198.309C29.2357 196.439 36.6386 191.415 36.6386 191.415L40.34 194.429Z" fill="#EF91A3"/>
<path d="M57.2279 174.333C57.2279 174.333 40.5714 184.632 33.6312 191.415C26.691 198.197 28.079 200.458 28.079 200.458C28.079 200.458 34.7879 186.893 40.5714 198.7C40.5714 198.7 56.7652 185.888 61.1607 191.415C65.5562 196.941 57.2279 174.333 57.2279 174.333Z" fill="#DFECFB"/>
<path d="M50.9817 233.618L64.862 230.603L63.2426 238.391L53.1839 237.254L50.9817 233.618Z" fill="#5D526E"/>
<path d="M75.0411 200.458L74.5784 205.985L57.9219 202.97L52.8324 199.453L45.1982 196.439C46.0985 193.745 46.2395 190.82 45.603 188.039C45.3145 186.839 44.8663 185.691 44.2728 184.632C41.034 178.854 57.9219 181.366 57.9219 181.366C57.7387 182.669 57.6536 183.985 57.6674 185.303C57.7021 189.501 58.7964 195.417 64.8621 194.429L69.9516 197.695L75.0411 200.458Z" fill="#FFC1CD"/>
<path d="M58.6158 192.671C58.6158 192.671 67.1754 188.651 71.3396 196.941C75.5037 205.231 77.3544 204.729 77.3544 204.729L69.0262 198.951L58.6158 192.671Z" fill="#FFC1CD"/>
<path d="M65.7874 234.623C65.7874 234.623 59.3099 240.401 63.0113 247.686C66.7128 254.971 89.8468 253.715 89.8468 253.715C89.8468 253.715 75.1616 247.723 78.8027 227.608C78.8027 227.608 68.3321 230.855 65.7874 234.623Z" fill="#5F5470"/>
<path d="M96.5557 243.164L94.2423 252.71L102.339 250.951C102.339 250.951 98.8691 242.913 99.3318 240.652C99.7945 238.391 96.5557 243.164 96.5557 243.164Z" fill="#5F5470"/>
<path d="M103.033 231.608C103.033 231.608 124.085 233.869 129.869 237.386L134.264 238.893C134.264 238.893 135.884 238.391 139.354 241.657L157.398 246.178L171.279 249.193C171.279 249.193 184.002 251.705 184.928 251.203C185.853 250.7 192.099 254.971 186.084 256.98C180.07 258.99 167.577 255.975 167.577 255.975C167.577 255.975 158.324 254.719 156.242 255.473C154.159 256.227 140.048 253.966 140.048 253.966L126.167 254.971C126.167 254.971 123.854 251.203 117.839 252.459C113.547 253.355 106.074 251.949 102.145 251.07C101.385 250.9 100.688 250.488 100.144 249.887C99.5999 249.285 99.2333 248.522 99.0909 247.693L97.7124 239.647L103.033 231.608Z" fill="#FFC1CD"/>
<path opacity="0.05" d="M103.033 231.608C103.033 231.608 124.085 233.869 129.869 237.386L134.264 238.893C134.264 238.893 135.884 238.391 139.354 241.657L157.398 246.178L171.279 249.193C171.279 249.193 184.002 251.705 184.928 251.203C185.853 250.7 192.099 254.971 186.084 256.98C180.07 258.99 167.577 255.975 167.577 255.975C167.577 255.975 158.324 254.719 156.242 255.473C154.159 256.227 140.048 253.966 140.048 253.966L126.167 254.971C126.167 254.971 123.854 251.203 117.839 252.459C113.547 253.355 106.074 251.949 102.145 251.07C101.385 250.9 100.688 250.488 100.144 249.887C99.5999 249.285 99.2333 248.522 99.0909 247.693L97.7124 239.647L103.033 231.608Z" fill="black"/>
<path opacity="0.1" d="M57.6674 185.303C56.0335 186.829 54.0698 187.881 51.9599 188.359C49.8501 188.838 47.6629 188.727 45.603 188.039C45.3145 186.839 44.8663 185.691 44.2728 184.632C41.034 178.854 57.9219 181.366 57.9219 181.366C57.7387 182.669 57.6536 183.985 57.6674 185.303Z" fill="black"/>
<path d="M49.3623 188.149C56.3894 188.149 62.086 181.963 62.086 174.333C62.086 166.702 56.3894 160.516 49.3623 160.516C42.3352 160.516 36.6385 166.702 36.6385 174.333C36.6385 181.963 42.3352 188.149 49.3623 188.149Z" fill="#FFC1CD"/>
<path opacity="0.1" d="M44.0415 194.681C44.0415 194.681 53.7578 200.458 54.2205 204.226C54.6832 207.995 52.8325 212.516 52.8325 212.516C52.8325 212.516 57.2279 241.154 62.7801 243.164L77.5859 227.589L90.0783 221.56C90.0783 221.56 82.6754 221.057 81.9814 213.521C81.2873 205.985 82.9067 203.473 74.5785 199.956C66.2502 196.439 61.7391 192.294 61.7391 192.294L59.5885 192.883L70.6457 199.202C70.6457 199.202 76.8919 203.222 60.698 200.207L45.4296 194.178L44.0415 194.681Z" fill="black"/>
<path d="M43.8102 194.178C43.8102 194.178 53.5265 199.956 53.9892 203.724C54.4518 207.492 52.6011 212.014 52.6011 212.014C52.6011 212.014 56.9966 240.652 62.5488 242.661L77.3546 227.086L89.847 221.057C89.847 221.057 82.4441 220.555 81.75 213.019C81.056 205.482 82.6754 202.97 74.3471 199.453C66.0189 195.937 61.5077 191.792 61.5077 191.792L59.3572 192.381L70.4143 198.7C70.4143 198.7 76.6605 202.719 60.4667 199.705L45.1982 193.676L43.8102 194.178Z" fill="#FF808C"/>
<path opacity="0.1" d="M47.2802 196.188C47.2802 196.188 37.7952 192.42 40.1086 204.478C42.422 216.536 54.4517 237.386 54.4517 237.386L82.6753 226.835C82.6753 226.835 91.4662 219.55 89.1528 218.797C86.8394 218.043 74.5784 222.816 74.5784 222.816L57.9219 225.579L53.9891 213.521C53.9891 213.521 57.6905 210.758 56.5338 207.241C56.5222 207.206 56.5106 207.171 56.4988 207.135C54.9274 202.454 51.7599 198.607 47.6507 196.389L47.2802 196.188Z" fill="black"/>
<path d="M46.8175 195.685C46.8175 195.685 37.3326 191.917 39.646 203.975C41.9594 216.033 53.9891 236.884 53.9891 236.884L82.2126 226.333C82.2126 226.333 91.0035 219.048 88.6901 218.294C86.3767 217.541 74.1157 222.313 74.1157 222.313L57.4592 225.077L53.5264 213.019C53.5264 213.019 57.2278 210.255 56.0711 206.739C56.0596 206.703 56.0479 206.668 56.0362 206.633C54.4648 201.951 51.2972 198.104 47.188 195.886L46.8175 195.685Z" fill="#FFC1CD"/>
<path opacity="0.1" d="M47.7018 154.519C46.6032 154.176 45.4577 154.046 44.3176 154.134C43.2442 154.305 42.2039 154.665 41.2379 155.201C39.6828 155.989 38.194 156.923 36.7886 157.993C35.8434 158.712 34.9173 159.503 33.8268 159.914C32.1914 160.529 30.2992 160.243 28.7923 161.168C26.6805 162.464 26.2085 165.572 26.5203 168.184C26.8322 170.796 27.6855 173.4 27.3061 176.001C26.7383 179.895 23.6288 182.661 20.7719 185.093C19.8723 185.859 18.9067 186.758 18.7686 187.99C18.6822 188.761 18.9427 189.521 19.1603 190.26C20.3653 194.311 20.3026 198.681 18.9818 202.689C17.6324 206.694 14.973 210.02 11.5105 212.034C10.1973 212.778 8.60404 213.539 8.29647 215.113C7.90599 217.111 9.88724 218.658 11.6514 219.366C13.0906 219.944 14.5787 220.366 16.0941 220.626C17.427 220.855 18.852 220.945 20.0683 220.31C21.4837 219.572 22.347 218.005 23.095 216.506C26.0074 210.669 29.5826 207.807 31.467 201.491C31.8734 200.129 32.5215 198.509 33.834 198.371C34.6549 198.285 35.397 198.847 36.0947 199.324C39.4612 201.627 42.9971 199.046 46.1307 196.384C46.8558 195.768 47.4761 194.995 48.2833 194.514C49.9979 193.492 52.4952 193.784 53.5231 191.978C53.762 191.501 53.9283 190.986 54.0153 190.452C54.4366 188.488 54.8574 186.425 54.3706 184.479C53.9201 182.678 52.7455 181.202 52.0533 179.494C51.3612 177.785 51.3214 175.451 52.7355 174.39C53.1595 174.072 53.6696 173.908 54.0867 173.58C55.302 172.622 55.3294 170.71 55.3226 169.08C55.2918 168.677 55.3554 168.272 55.5075 167.903C55.7299 167.552 56.0224 167.261 56.3633 167.05C57.7129 166.045 58.7639 164.636 59.3878 162.993C60.0007 161.198 58.431 160.386 57.177 159.377C54.3438 157.096 51.1239 155.445 47.7018 154.519Z" fill="black"/>
<path d="M47.4705 154.267C46.3719 153.925 45.2264 153.795 44.0863 153.883C43.0129 154.053 41.9726 154.414 41.0066 154.95C39.4514 155.738 37.9627 156.672 36.5572 157.742C35.6121 158.461 34.686 159.252 33.5955 159.663C31.96 160.278 30.0679 159.992 28.561 160.917C26.4491 162.213 25.9771 165.321 26.289 167.933C26.6008 170.545 27.4542 173.149 27.0748 175.75C26.507 179.644 23.3974 182.409 20.5406 184.842C19.641 185.608 18.6754 186.507 18.5373 187.739C18.4509 188.51 18.7114 189.27 18.9289 190.009C20.134 194.06 20.0713 198.43 18.7505 202.437C17.401 206.443 14.7417 209.769 11.2792 211.782C9.96603 212.527 8.37272 213.288 8.06515 214.862C7.67466 216.859 9.65591 218.407 11.42 219.115C12.8592 219.693 14.3474 220.115 15.8628 220.375C17.1957 220.604 18.6206 220.694 19.837 220.059C21.2523 219.321 22.1157 217.754 22.8637 216.255C25.776 210.417 29.3513 207.556 31.2356 201.24C31.642 199.878 32.2902 198.257 33.6027 198.12C34.4235 198.034 35.1656 198.596 35.8634 199.073C39.2299 201.376 42.7658 198.795 45.8994 196.133C46.6245 195.516 47.2448 194.743 48.0519 194.263C49.7666 193.241 52.2639 193.533 53.2918 191.726C53.5307 191.25 53.6969 190.735 53.784 190.201C54.2053 188.236 54.6261 186.174 54.1392 184.228C53.6888 182.427 52.5141 180.951 51.822 179.242C51.1299 177.534 51.0901 175.2 52.5042 174.139C52.9282 173.821 53.4383 173.657 53.8554 173.328C55.0707 172.371 55.098 170.459 55.0913 168.829C55.0604 168.426 55.1241 168.021 55.2762 167.652C55.4986 167.301 55.7911 167.009 56.132 166.799C57.4816 165.794 58.5326 164.385 59.1565 162.742C59.7693 160.947 58.1996 160.134 56.9457 159.125C54.1125 156.845 50.8925 155.194 47.4705 154.267Z" fill="#B46D86"/>
<path d="M155.201 264.391C148.92 265.83 130.593 265.22 127.902 262.884C123.785 259.307 124.798 256.129 125.071 255.473H125.011C125.011 255.473 127.324 249.444 125.011 244.922C125.011 244.922 124.779 239.396 119.921 235.125C115.063 230.855 109.742 218.797 109.742 218.797L106.966 225.077C106.966 225.077 102.793 238.866 98.4643 244.988C97.5984 246.202 97.0087 247.621 96.7431 249.13C96.4563 250.791 95.4661 252.883 92.3916 253.463L92.232 253.494C90.0792 253.884 87.8684 253.6 85.8593 252.674C83.8501 251.748 82.126 250.219 80.8894 248.266C78.8188 245.029 76.4736 240.535 75.9431 236.159C75.7702 234.687 75.8828 233.191 76.2737 231.769C76.6645 230.347 77.325 229.029 78.2127 227.9L78.2382 227.868C83.2213 221.474 100.498 199.484 103.265 198.197C103.265 198.197 115.757 185.135 120.615 202.719C125.473 220.304 127.093 225.579 127.093 225.579C127.093 225.579 132.902 236.846 134.496 240.652C136.143 244.586 142.995 254.398 143.691 255.39C144.328 255.862 150.451 260.372 152.424 260.372C153.297 260.372 159.726 263.353 155.201 264.391Z" fill="#FFC1CD"/>
<g opacity="0.05">
<path opacity="0.05" d="M125.957 248.462C126.154 246.51 126.046 244.184 125.011 242.159C125.011 242.159 124.779 236.632 119.921 232.362C115.063 228.091 109.742 216.033 109.742 216.033L106.966 222.313C106.966 222.313 102.793 236.102 98.4643 242.224C97.5983 243.439 97.0086 244.858 96.7431 246.367C96.4562 248.027 95.4661 250.12 92.3916 250.7L92.2319 250.73C90.0792 251.121 87.8684 250.837 85.8592 249.911C83.8501 248.985 82.1259 247.456 80.8893 245.503C78.8417 242.301 76.5285 237.872 75.9644 233.541C75.8357 234.492 75.8285 235.457 75.9431 236.41C76.4735 240.787 78.8188 245.28 80.8893 248.517C82.1259 250.47 83.8501 251.999 85.8592 252.925C87.8684 253.851 90.0792 254.136 92.2319 253.745L92.3916 253.715C95.4661 253.134 96.4562 251.042 96.7431 249.381C97.0086 247.873 97.5983 246.453 98.4643 245.239C102.793 239.117 106.966 225.328 106.966 225.328L109.742 219.048C109.742 219.048 115.063 231.106 119.921 235.376C124.779 239.647 125.011 245.173 125.011 245.173C125.519 246.193 125.84 247.31 125.957 248.462Z" fill="black"/>
</g>
<path opacity="0.05" d="M65.6718 215.908C65.6718 215.908 75.6194 215.656 74.9254 212.14L65.6718 215.908Z" fill="black"/>
<path d="M228.817 228.457C228.817 228.457 244.263 216.903 259.365 221.003C274.467 225.103 263.141 239.266 263.141 239.266L228.817 228.457Z" fill="#EED1D7"/>
<path d="M222.639 221.003C222.639 221.003 237.741 213.921 248.038 221.375C258.335 228.83 278.929 232.557 278.929 232.557" fill="#CCB2BB"/>
</g>
<defs>
<linearGradient id="paint0_linear" x1="83.1399" y1="134.073" x2="83.1399" y2="133.562" gradientUnits="userSpaceOnUse">
<stop stop-color="#808080" stop-opacity="0.25"/>
<stop offset="0.53514" stop-color="#808080" stop-opacity="0.12"/>
<stop offset="1" stop-color="#808080" stop-opacity="0.1"/>
</linearGradient>
<linearGradient id="paint1_linear" x1="117.736" y1="327.334" x2="117.736" y2="326.634" gradientUnits="userSpaceOnUse">
<stop stop-color="#808080" stop-opacity="0.25"/>
<stop offset="0.53514" stop-color="#808080" stop-opacity="0.12"/>
<stop offset="1" stop-color="#808080" stop-opacity="0.1"/>
</linearGradient>
<linearGradient id="paint2_linear" x1="2507.57" y1="7372.49" x2="2507.57" y2="6939.36" gradientUnits="userSpaceOnUse">
<stop stop-color="#808080" stop-opacity="0.25"/>
<stop offset="0.53514" stop-color="#808080" stop-opacity="0.12"/>
<stop offset="1" stop-color="#808080" stop-opacity="0.1"/>
</linearGradient>
<clipPath id="clip0">
<rect width="370" height="320" fill="white"/>
</clipPath>
</defs>
</svg>
