<svg width="23" height="22" viewBox="0 0 23 22" fill="none" xmlns="http://www.w3.org/2000/svg">
<path fill-rule="evenodd" clip-rule="evenodd" d="M22.6721 11.0655C22.6717 8.95049 22.0609 6.87992 20.9121 5.09887C19.7633 3.31782 18.1245 1.90087 16.1897 1.01578C14.255 0.130678 12.1053 -0.185502 9.99518 0.10466C7.88505 0.394822 5.90285 1.27918 4.28324 2.65303C2.66363 4.02689 1.47443 5.83271 0.856425 7.85672C0.238419 9.88073 0.217487 12.0382 0.796108 14.0736C1.37473 16.1091 2.52868 17.9373 4.12133 19.3419C5.71399 20.7464 7.67867 21.6685 9.78277 21.999V14.2656H6.95159V11.0655H9.78277V8.62666C9.78277 5.85336 11.4474 4.32023 13.9934 4.32023C14.8296 4.33179 15.6637 4.40412 16.4892 4.53664V7.26052H15.0828C14.8432 7.22903 14.5995 7.25144 14.3699 7.32608C14.1402 7.40073 13.9303 7.52571 13.7558 7.69176C13.5814 7.85781 13.4468 8.06069 13.362 8.28537C13.2771 8.51006 13.2443 8.75081 13.2659 8.9898V11.0659H16.3573L15.8636 14.2661H13.2659V22C15.8882 21.5877 18.2763 20.2598 20.0006 18.2554C21.7249 16.2509 22.6722 13.7014 22.6721 11.0654V11.0655Z" fill="white"/>
</svg>
