<svg width="28" height="22" viewBox="0 0 28 22" fill="none" xmlns="http://www.w3.org/2000/svg">
<path d="M24.1402 20.2779L14.27 12.9445C14.0692 12.7952 13.8008 12.7952 13.6 12.9445L3.72984 20.2779C3.57541 20.3924 3.48353 20.5789 3.48364 20.7777V21.3889C3.48359 21.7264 3.74355 22 4.06421 22H23.8047C24.1253 22 24.3853 21.7264 24.3853 21.3889V20.7777C24.3856 20.5792 24.2942 20.3927 24.1402 20.2779Z" fill="white"/>
<path d="M14.27 12.9445L4.39983 5.61118C4.13818 5.4161 3.77578 5.48124 3.59044 5.75664C3.52071 5.86022 3.48337 5.98409 3.48364 6.11105V20.7777C3.48299 21.1152 3.74247 21.3894 4.06312 21.39C4.18374 21.3903 4.30142 21.351 4.39983 21.2776L14.27 13.9443C14.532 13.7497 14.5945 13.3684 14.4096 13.0927C14.3714 13.0357 14.3242 12.986 14.27 12.9458V12.9445Z" fill="white"/>
<path d="M24.0717 5.56843C23.8787 5.46462 23.647 5.48106 23.469 5.61123L13.5988 12.9446C13.3368 13.1392 13.2744 13.5205 13.4593 13.7962C13.4975 13.8532 13.5447 13.9029 13.5988 13.9431L23.469 21.2764C23.7307 21.4715 24.0931 21.4064 24.2784 21.131C24.3479 21.0277 24.3852 20.9043 24.3852 20.7778V6.1111C24.3852 5.88274 24.2643 5.67345 24.0717 5.56843Z" fill="white"/>
<path d="M25.5173 0.420463C25.439 0.169583 25.2166 0 24.9658 0H2.90288C2.58223 0 2.32227 0.273625 2.32227 0.61113C2.32227 0.803458 2.40832 0.984614 2.55452 1.1L13.586 9.65554C13.7907 9.81423 14.0698 9.81423 14.2746 9.65554L25.306 1.1C25.5081 0.945026 25.5932 0.671229 25.5173 0.420463Z" fill="white"/>
<path d="M24.9659 0C24.8402 0 24.718 0.0429116 24.6175 0.122203L13.9344 8.40767L3.25135 0.122203C3.15087 0.0429116 3.02861 0 2.90299 0C1.29971 0 0 1.36801 0 3.05554V18.9444C0 20.632 1.29971 22 2.90299 22H4.06417C4.38483 22 4.64479 21.7264 4.64479 21.3889V7.29054L13.5988 13.9443C13.7996 14.0936 14.068 14.0936 14.2688 13.9443L23.224 7.29054V21.3889C23.224 21.7264 23.484 22 23.8046 22H24.9658C26.5691 22 27.8689 20.632 27.8689 18.9445V3.05554C27.8689 1.36801 26.5691 0 24.9659 0Z" fill="#EBEBEB"/>
</svg>
