<svg width="24" height="24" viewBox="0 0 24 24" fill="none" xmlns="http://www.w3.org/2000/svg">
<path d="M16.9998 0H7.00019C5.14528 0.00539541 3.36791 0.744649 2.05629 2.05627C0.744668 3.36789 0.00539917 5.14528 0 7.00018V16.9998C0.00539917 18.8547 0.744668 20.6321 2.05629 21.9437C3.36791 23.2554 5.14528 23.9946 7.00019 24H16.9998C18.8547 23.9946 20.6321 23.2553 21.9437 21.9437C23.2553 20.6321 23.9946 18.8547 24 16.9998V7.00018C23.9946 5.14528 23.2553 3.36789 21.9437 2.05628C20.6321 0.744662 18.8547 0.00540662 16.9998 0V0Z" fill="white"/>
<path d="M18.4997 7.00018C18.103 6.99933 17.7228 6.84103 17.4428 6.56007C17.1627 6.27911 17.0057 5.89846 17.0061 5.50177C17.0065 5.10507 17.1644 4.72478 17.4451 4.44442C17.7257 4.16407 18.1062 4.00659 18.5029 4.00659C18.8996 4.00659 19.2801 4.16407 19.5607 4.44442C19.8414 4.72478 19.9992 5.10507 19.9997 5.50177C20.0001 5.89846 19.843 6.27911 19.563 6.56007C19.2829 6.84103 18.9028 6.99933 18.5061 7.00018H18.4997Z" fill="#FDCA7C"/>
<path d="M11.9998 7.99982C12.791 7.99982 13.5643 8.23442 14.2222 8.67397C14.88 9.11351 15.3927 9.73826 15.6955 10.4692C15.9982 11.2001 16.0774 12.0044 15.9231 12.7804C15.7687 13.5563 15.3877 14.2691 14.8283 14.8285C14.2689 15.388 13.5561 15.769 12.7802 15.9233C12.0042 16.0777 11.1999 15.9984 10.469 15.6957C9.73805 15.3929 9.11332 14.8802 8.67377 14.2224C8.23423 13.5645 7.99961 12.7912 7.99961 12C7.99961 11.4747 8.10308 10.9545 8.30411 10.4692C8.50514 9.98386 8.79979 9.54289 9.17124 9.17144C9.54269 8.79999 9.98366 8.50534 10.469 8.30431C10.9543 8.10328 11.4745 7.99982 11.9998 7.99982V7.99982ZM11.9998 6C10.8131 6 9.65306 6.35189 8.66637 7.01117C7.67967 7.67046 6.91064 8.60752 6.45651 9.70388C6.00238 10.8002 5.88353 12.0066 6.11504 13.1705C6.34654 14.3344 6.918 15.4035 7.75711 16.2426C8.59623 17.0817 9.66532 17.6532 10.8292 17.8847C11.9931 18.1162 13.1995 17.9974 14.2959 17.5433C15.3922 17.0891 16.3293 16.3201 16.9886 15.3334C17.6479 14.3467 17.9998 13.1867 17.9998 12V12C17.9998 10.4087 17.3676 8.8826 16.2424 7.75739C15.1172 6.63217 13.5911 6.00003 11.9998 6.00002V6Z" fill="#FDCA7C"/>
</svg>
