<svg width="57" height="48" viewBox="0 0 57 48" fill="none" xmlns="http://www.w3.org/2000/svg">
<path d="M32.1973 47.45H31.8973C28.8639 47.45 26.2973 46.4 24.1973 44.3C22.1306 42.2333 21.0973 39.6833 21.0973 36.65V20.55H7.39727V33.1C7.39727 34.1 7.0806 34.9167 6.44727 35.55C5.81393 36.15 4.99727 36.45 3.99727 36.45C2.99727 36.45 2.1806 36.15 1.54727 35.55C0.947266 34.9167 0.647266 34.1 0.647266 33.1V4.1C0.647266 3.1 0.947266 2.3 1.54727 1.7C2.1806 1.06666 2.99727 0.749998 3.99727 0.749998C4.99727 0.749998 5.81393 1.06666 6.44727 1.7C7.0806 2.3 7.39727 3.1 7.39727 4.1V13.8H21.0973V4.1C21.0973 3.1 21.3973 2.3 21.9973 1.7C22.6306 1.06666 23.4473 0.749998 24.4473 0.749998C25.4473 0.749998 26.2639 1.06666 26.8973 1.7C27.5306 2.3 27.8473 3.1 27.8473 4.1V36.65C27.8473 37.7833 28.2306 38.7333 28.9973 39.5C29.7973 40.3 30.7639 40.7 31.8973 40.7H32.1973C33.1973 40.7 34.0139 41.0167 34.6473 41.65C35.2806 42.2833 35.5973 43.1 35.5973 44.1C35.5973 45.1 35.2806 45.9 34.6473 46.5C34.0139 47.1333 33.1973 47.45 32.1973 47.45ZM46.6313 25.85C46.6646 26.9167 47.0646 27.8333 47.8313 28.6C48.5979 29.3333 49.4979 29.7 50.5313 29.7C51.5979 29.7 52.4479 30.0167 53.0813 30.65C53.7146 31.25 54.0313 32.0667 54.0313 33.1C54.0313 34.1 53.7146 34.9167 53.0813 35.55C52.4479 36.15 51.6313 36.45 50.6313 36.45C47.5646 36.45 44.9979 35.4167 42.9313 33.35C40.8979 31.2833 39.8813 28.7167 39.8813 25.65V22.9C39.8813 22 40.2146 21.2167 40.8813 20.55C41.5479 19.8833 42.3313 19.55 43.2313 19.55C44.8979 19.55 46.3146 18.9667 47.4813 17.8C48.6813 16.6 49.2813 15.1667 49.2813 13.5C49.2813 11.8333 48.6813 10.4167 47.4813 9.25C46.3146 8.08333 44.8979 7.5 43.2313 7.5C41.5646 7.5 40.1479 8.08333 38.9813 9.25C37.8146 10.4167 37.2313 11.8333 37.2313 13.5V33.1C37.2313 34.1 36.9146 34.9167 36.2813 35.55C35.6479 36.15 34.8313 36.45 33.8313 36.45C32.8646 36.45 32.0646 36.1333 31.4313 35.5C30.7979 34.8667 30.4813 34.0667 30.4813 33.1V13.5C30.4813 9.9 31.6979 6.88333 34.1313 4.45C36.5979 1.98333 39.6313 0.749998 43.2313 0.749998C46.8313 0.749998 49.8646 1.98333 52.3313 4.45C54.7979 6.88333 56.0312 9.9 56.0312 13.5C56.0312 16.4 55.1646 18.9833 53.4313 21.25C51.6979 23.5167 49.4313 25.05 46.6313 25.85Z" fill="white"/>
</svg>
