<svg width="28" height="22" viewBox="0 0 28 22" fill="none" xmlns="http://www.w3.org/2000/svg">
<path d="M25.2132 3.7557L28 3.21918C27.1425 4.17964 26.211 5.0764 25.2132 5.90181C25.1716 6.43759 25.1716 6.97561 25.2132 7.51138C19.8623 29.6163 0.131165 19.8515 0.131165 19.8515C7.32133 20.0124 7.93444 17.1688 7.93444 17.1688C3.7541 16.5787 2.91801 13.9497 2.91801 13.9497C3.29307 14.1401 3.72794 14.1907 4.13933 14.0917C4.55071 13.9927 4.90971 13.7511 5.14755 13.4132C3.92106 13.1451 2.84214 12.4472 2.1209 11.4554C1.39966 10.4636 1.08771 9.24893 1.24588 8.0479C2.05059 8.60716 2.991 8.95817 3.97703 9.0673C3.47539 8.47712 -0.760649 3.59473 1.80329 1.07306C1.80329 1.07306 4.92461 6.43833 13.1181 6.9212L13.6754 6.81389C13.5806 6.42746 13.5431 6.03007 13.5639 5.63352C13.5639 4.13942 14.1805 2.70651 15.2781 1.65002C16.3756 0.593535 17.8642 2.13136e-06 19.4164 0C23.318 0 24.1541 2.1461 24.1541 2.1461L26.941 0.536532C26.8853 0.536548 26.6066 3.21918 25.2132 3.7557Z" fill="white"/>
</svg>
